<?xml version="1.0" encoding="utf-8"?>
<!-- Svg Vector Icons : http://www.onlinewebfonts.com/icon -->
<!DOCTYPE svg PUBLIC "-//W3C//DTD SVG 1.1//EN" "http://www.w3.org/Graphics/SVG/1.1/DTD/svg11.dtd">
<svg version="1.1" xmlns="http://www.w3.org/2000/svg" xmlns:xlink="http://www.w3.org/1999/xlink" x="0px" y="0px" viewBox="0 0 1000 1000" enable-background="new 0 0 1000 1000" xml:space="preserve">
<metadata> Svg Vector Icons : http://www.onlinewebfonts.com/icon </metadata>
<g><g transform="translate(0.000000,512.000000) scale(0.100000,-0.100000)"><path d="M4530.1,5007.9C3375.4,4889,2341.7,4400,1530.4,3588.6C751.6,2809.9,287.5,1860.5,124.4,723.1c-32.6-226.3-32.6-982,0-1208.3c163-1137.4,629.1-2086.8,1405.9-2865.5c776.8-776.8,1730-1244.8,2865.5-1405.9c226.3-32.6,982-32.6,1208.3,0c939.8,134.3,1779.9,491,2474.2,1053c987.8,797.9,1611.1,1916.1,1797.2,3218.4c32.6,226.3,32.6,982,0,1208.3c-161.1,1135.5-629.1,2088.7-1405.9,2865.5c-759.5,759.5-1687.8,1223.7-2779.2,1392.5C5448.8,5017.5,4775.6,5034.8,4530.1,5007.9z M5385.5,4242.7c964.8-95.9,1862.4-519.8,2541.3-1196.8c870.8-872.7,1315.8-2106,1194.9-3322c-195.6-1971.7-1755-3531-3726.7-3726.7c-1216-120.8-2449.3,324.2-3322,1194.9c-677,678.9-1100.9,1576.6-1196.8,2541.3c-130.4,1317.7,425.8,2685.2,1438.5,3536.8C3177.9,3995.3,4298,4350.1,5385.5,4242.7z"/><path d="M3214.3,2846.4c-34.5-3.8-170.7-128.5-466.1-423.9l-416.2-416.2l5.8-498.7c5.7-477.6,7.7-500.6,49.9-579.2c103.6-193.7,278.1-324.2,491-368.3c331.8-67.1,677,153.4,761.4,487.2l23,94l26.9-103.6c59.4-230.2,245.5-410.4,491-469.9c297.3-72.9,604.2,69,740.4,341.4c32.6,65.2,59.4,132.3,59.4,153.4c0,19.2,9.6,34.5,19.2,34.5c11.5,0,19.2-15.3,19.2-34.5c0-67.1,117-268.5,195.6-339.5c370.2-335.6,968.6-163,1097.1,316.5c15.3,57.5,28.8,90.1,28.8,72.9c1.9-19.2,19.2-80.6,42.2-138.1c53.7-147.7,184.1-283.9,339.5-360.6c113.2-55.6,145.8-63.3,281.9-61.4c122.8,0,174.5,9.6,262.8,49.9c138.1,63.3,260.8,176.5,333.7,306.9l55.6,101.7l5.8,498.7l5.8,498.7l-420,418.1l-420,420l-1781.8,1.9C4065.9,2850.2,3241.2,2850.2,3214.3,2846.4z"/><path d="M3567.2,631.1c-161.1-161.1-435.4-262.8-642.5-235.9l-92.1,13.4v-970.5v-968.6h-249.3H2334v-163v-163h2666h2666v163v163h-249.3h-249.3v968.6v970.5l-92.1-13.4C6870,368.3,6590,470,6430.8,631.1l-90.1,92.1L6239,625.3c-316.5-306.9-813.2-308.8-1133.5-5.7l-107.4,101.7l-80.6-78.6C4581.9,316.5,4087,310.8,3759,627.2l-101.7,97.8L3567.2,631.1z M5671.3-878.4v-652.1H5000h-671.3v652.1v652.1H5000h671.3V-878.4z"/></g></g>
</svg>